<?xml version="1.0" standalone="no"?>
<!DOCTYPE svg PUBLIC "-//W3C//DTD SVG 20010904//EN"
 "http://www.w3.org/TR/2001/REC-SVG-20010904/DTD/svg10.dtd">
<svg version="1.0" xmlns="http://www.w3.org/2000/svg"
 width="500.000000pt" height="500.000000pt" viewBox="0 0 500.000000 500.000000"
 preserveAspectRatio="xMidYMid meet">
<metadata>
Created by potrace 1.14, written by Peter Selinger 2001-2017
</metadata>
<g transform="translate(0.000000,500.000000) scale(0.100000,-0.100000)"
fill="#000000" stroke="none">
<path d="M1845 3435 c-127 -34 -259 -102 -384 -197 -84 -65 -254 -232 -339
-333 -41 -49 -83 -96 -93 -103 -14 -9 -115 -16 -376 -24 -197 -5 -359 -11
-359 -12 -1 0 -4 -238 -7 -528 l-6 -528 388 0 c440 0 414 5 455 -86 31 -68
124 -160 248 -244 119 -82 114 -82 128 -17 22 109 122 276 203 339 49 38 107
68 147 74 31 5 39 14 74 77 53 97 103 164 167 221 62 56 175 115 235 125 l42
6 -59 70 c-70 82 -137 181 -176 259 -15 31 -30 56 -33 56 -3 0 -19 -24 -37
-53 -44 -73 -129 -170 -204 -235 -97 -83 -381 -265 -392 -251 -2 2 -22 39 -45
81 l-41 77 67 37 c307 168 482 354 536 569 28 108 35 122 72 140 67 32 112 -4
150 -119 39 -118 105 -254 165 -341 70 -102 182 -212 230 -226 85 -26 183 19
235 107 l28 48 -33 130 c-45 174 -101 346 -143 437 -27 56 -57 97 -127 171
-142 150 -273 236 -413 274 -67 17 -237 17 -303 -1z m-957 -878 c3 -16 1 -17
-17 -5 -42 26 -54 -22 -26 -105 l19 -58 -23 -45 c-13 -24 -22 -46 -20 -48 2
-3 17 -8 33 -12 26 -6 28 -5 21 15 -10 33 3 61 29 61 29 0 50 -24 43 -49 -3
-14 -1 -18 9 -14 8 3 16 16 19 29 3 13 8 36 11 51 7 33 23 55 35 47 5 -3 2
-12 -6 -20 -8 -9 -15 -27 -15 -40 0 -46 -27 -93 -57 -100 -68 -16 -42 -37 35
-28 l52 6 0 -38 c0 -41 -19 -104 -32 -104 -12 0 -10 13 6 52 20 48 10 59 -46
52 l-46 -6 35 -36 c30 -30 34 -39 29 -68 -3 -19 -9 -50 -13 -71 -4 -26 -3 -34
5 -29 7 4 12 14 12 22 0 8 9 14 20 14 13 0 20 -7 20 -20 0 -22 -15 -27 -23 -7
-3 6 -6 2 -6 -9 -1 -23 -26 -39 -43 -28 -6 4 -8 29 -5 63 5 54 5 55 -9 29 -11
-21 -22 -28 -44 -28 -21 0 -28 -4 -24 -14 3 -8 1 -23 -5 -33 -9 -16 -10 -15
-11 7 0 14 -4 31 -9 39 -7 11 -13 3 -22 -28 -9 -32 -23 -50 -51 -69 -39 -25
-49 -60 -15 -54 9 2 17 -2 17 -8 0 -5 -11 -10 -25 -10 -18 0 -26 7 -31 27 -6
22 -1 32 35 62 55 48 56 83 2 145 -21 25 -41 51 -44 58 -9 25 -19 -1 -12 -32
5 -22 16 -35 43 -47 36 -16 36 -17 11 -20 -21 -3 -26 -8 -22 -23 3 -11 2 -31
-1 -45 -6 -22 -11 -26 -39 -23 -27 3 -33 8 -35 32 -2 15 1 40 7 55 6 16 7 42
2 66 -5 22 -9 35 -10 29 0 -6 -12 -16 -26 -22 -68 -31 -118 4 -129 89 -7 52
-28 89 -49 89 -17 0 -57 -42 -57 -60 0 -18 19 -40 33 -40 5 0 7 14 3 30 -3 17
-2 30 3 30 12 0 21 -25 21 -56 0 -20 -5 -24 -28 -24 -15 0 -33 5 -40 12 -19
19 -14 73 9 102 18 23 28 27 63 24 36 -3 43 -7 58 -38 9 -19 20 -48 25 -65 6
-20 16 -31 32 -33 47 -7 81 59 46 88 -8 7 -15 18 -15 25 0 8 -19 14 -51 17
-62 6 -100 39 -101 86 -3 95 160 124 212 39 11 -18 20 -38 20 -45 0 -25 53
-61 80 -55 55 13 63 30 55 124 -5 74 -4 89 11 103 21 21 58 17 62 -7z"/>
<path d="M750 2196 c0 -7 9 -25 21 -40 12 -15 30 -44 40 -64 17 -34 18 -35 19
-11 0 14 6 31 13 38 10 10 3 20 -32 52 -46 41 -61 48 -61 25z"/>
<path d="M880 2085 c0 -8 5 -15 10 -15 6 0 10 7 10 15 0 8 -4 15 -10 15 -5 0
-10 -7 -10 -15z"/>
<path d="M677 2025 c-9 -21 2 -45 20 -45 10 0 13 9 11 27 -3 30 -23 41 -31 18z"/>
<path d="M4145 3253 c-22 -2 -311 -62 -642 -134 -331 -71 -604 -129 -607 -129
-3 0 8 -35 23 -77 16 -43 43 -134 62 -203 18 -69 33 -126 34 -127 0 -1 30 4
65 12 36 8 299 64 585 125 564 120 603 133 715 221 109 86 142 191 79 250 -17
16 -53 35 -81 44 -55 16 -171 25 -233 18z"/>
<path d="M3040 2379 c0 -21 -52 -114 -86 -156 -53 -65 -114 -103 -219 -138
-15 -5 12 -23 120 -78 77 -40 151 -80 165 -90 53 -35 619 -77 1024 -77 435 1
506 17 539 121 10 30 -15 97 -50 138 -46 54 -152 105 -286 136 -218 51 -635
111 -927 134 -257 20 -280 21 -280 10z"/>
<path d="M2291 1989 c-71 -35 -144 -112 -191 -201 -18 -33 -30 -61 -28 -63 23
-21 580 -298 600 -298 54 -1 139 89 211 223 58 108 60 100 -45 158 -115 63
-285 140 -400 180 l-87 31 -60 -30z"/>
<path d="M1855 1581 c-80 -48 -164 -181 -173 -272 -4 -48 -4 -48 41 -77 110
-69 478 -192 576 -192 115 0 222 110 209 215 -3 27 -25 40 -303 186 -165 87
-304 158 -310 159 -5 0 -24 -8 -40 -19z"/>
</g>
</svg>
